<svg width="48" height="48" viewBox="0 0 48 48" fill="none" xmlns="http://www.w3.org/2000/svg">
<path d="M17.4 36.0003H6C3.014 36.0003 0 33.7324 0 28.6685V18.5888C0.0420543 13.9932 1.76285 9.57161 4.83835 6.15657C7.91385 2.74152 12.1318 0.568692 16.698 0.0472414C19.2747 -0.139805 21.8615 0.23 24.2826 1.13153C26.7037 2.03306 28.9024 3.44518 30.7292 5.27194C32.556 7.09871 33.9681 9.2973 34.8697 11.7183C35.7712 14.1394 36.141 16.7261 35.954 19.3027C35.4319 23.8707 33.2571 28.0899 29.8396 31.1655C26.422 34.2411 21.9976 35.9607 17.4 36.0003ZM40 18.1608H39.976C39.976 18.6348 39.976 19.1087 39.952 19.5847C39.18 30.4005 29.294 39.5562 18.168 39.9622V39.9922C19.5692 42.4224 21.5847 44.4414 24.0125 45.8469C26.4402 47.2524 29.1948 47.9949 32 48H42C43.5913 48 45.1174 47.3679 46.2426 46.2427C47.3679 45.1175 48 43.5914 48 42.0002V32.0004C47.9971 29.1947 47.2565 26.439 45.8523 24.0099C44.4482 21.5808 42.4299 19.5636 40 18.1608Z" fill="#EDE9DE"/>
</svg>
