<svg width="45" height="48" viewBox="0 0 45 48" fill="none" xmlns="http://www.w3.org/2000/svg">
<path d="M25.5064 24.8328L28.1697 31.5851L21.2465 28.9876C20.4409 28.687 19.8039 28.0636 19.4936 27.276L16.8303 20.5256L23.7515 23.1211C24.5591 23.4238 25.1961 24.0471 25.5064 24.8308V24.8328ZM24.555 4.10472V2.00426C24.555 0.897908 23.6364 0 22.5 0C21.3636 0 20.445 0.897908 20.445 2.00426V4.10472C21.1232 4.0446 21.8075 4.00852 22.5 4.00852C23.1925 4.00852 23.8768 4.0446 24.555 4.10472ZM40.9948 28.0596H45C44.0177 38.6181 35.3806 47.044 24.555 48V44.0937C24.555 42.9853 23.6364 42.0894 22.5 42.0894C21.3636 42.0894 20.445 42.9853 20.445 44.0937V48C9.61937 47.042 0.980227 38.6181 0 28.0596H4.00516C5.14157 28.0596 6.06014 27.1637 6.06014 26.0554C6.06014 24.947 5.14157 24.0511 4.00516 24.0511H0C0.980227 13.4927 9.61937 5.06075 20.445 4.10472V8.01704C20.445 9.12339 21.3636 10.0213 22.5 10.0213C23.6364 10.0213 24.555 9.12339 24.555 8.01704V4.10472C35.3806 5.06075 44.0198 13.4927 45 24.0511H40.9948C39.8584 24.0511 38.9399 24.949 38.9399 26.0554C38.9399 27.1617 39.8584 28.0596 40.9948 28.0596ZM33.6668 34.355L29.3431 23.3957C28.6177 21.5558 27.1196 20.0927 25.229 19.3832L13.9903 15.1662C13.232 14.8836 12.3751 15.06 11.7997 15.6192C11.2264 16.1784 11.0435 17.0162 11.3332 17.7557L15.6569 28.715C16.3844 30.5589 17.8825 32.02 19.771 32.7295L31.0097 36.9465C31.2501 37.0367 31.4988 37.0788 31.7474 37.0788C32.2838 37.0788 32.8078 36.8744 33.2003 36.4915C33.7736 35.9324 33.9565 35.0946 33.6668 34.355Z" fill="#EDE9DE"/>
</svg>
