<svg width="22" height="24" viewBox="0 0 22 24" fill="none" xmlns="http://www.w3.org/2000/svg">
<path d="M14.5 0H7.5C5.567 0 4 1.567 4 3.5V8.5C4 10.433 5.567 12 7.5 12H8.154L9.989 13.617C10.278 13.873 10.641 14 11.003 14C11.362 14 11.719 13.875 12.003 13.625L13.881 12H14.5C16.433 12 18 10.433 18 8.5V3.5C18 1.567 16.433 0 14.5 0ZM14.234 5.68L11.703 8.414C11.311 8.801 10.807 8.992 10.308 8.992C9.823 8.992 9.344 8.81 8.977 8.452L7.775 7.189C7.394 6.789 7.41 6.156 7.811 5.775C8.211 5.393 8.845 5.412 9.225 5.81L10.321 6.963L12.766 4.319C13.141 3.913 13.773 3.888 14.179 4.265C14.584 4.64 14.609 5.273 14.234 5.678V5.68ZM5.16 17.417L5.892 19.556H4.108L4.833 17.435C4.856 17.388 4.945 17.333 5 17.333C5.057 17.333 5.142 17.381 5.16 17.417ZM10 19.001C10 21.762 7.761 24.001 5 24.001C2.239 24.001 0 21.762 0 19.001C0 16.24 2.239 14.001 5 14.001C7.761 14.001 10 16.24 10 19.001ZM7.556 21.062L6.194 17.007C5.908 16.36 5.509 16.223 5 16.223C4.491 16.223 4.091 16.36 3.798 17.027L2.444 21.061C2.326 21.413 2.588 21.778 2.96 21.778C3.193 21.778 3.399 21.63 3.475 21.41L3.729 20.667H6.273L6.527 21.41C6.602 21.63 6.809 21.778 7.041 21.778C7.413 21.778 7.675 21.414 7.556 21.062ZM18.664 20.169C18.635 20.457 18.377 20.668 18.087 20.668C17.687 20.668 16.953 20.668 16.444 20.668C16.137 20.668 15.889 20.419 15.889 20.112V19.556H18.111C18.436 19.556 18.697 19.837 18.664 20.168V20.169ZM18.108 17.834C18.079 17.546 17.82 17.335 17.53 17.335H16.444C16.137 17.335 15.888 17.584 15.888 17.891V18.447H17.555C17.88 18.447 18.141 18.165 18.108 17.834ZM22 19.001C22 21.762 19.761 24.001 17 24.001C14.239 24.001 12 21.762 12 19.001C12 16.24 14.239 14.001 17 14.001C19.761 14.001 22 16.24 22 19.001ZM19.772 20.249C19.824 19.604 19.505 19.027 19.007 18.708C19.151 18.454 19.229 18.159 19.221 17.845C19.197 16.934 18.42 16.223 17.508 16.223H16.66C15.572 16.223 14.777 17.019 14.777 18.001V20.001C14.777 20.983 15.573 21.779 16.555 21.779H18.067C18.943 21.779 19.702 21.122 19.772 20.249Z" fill="#EDE9DE"/>
</svg>
