<svg width="36" height="31" viewBox="0 0 36 31" fill="none" xmlns="http://www.w3.org/2000/svg">
<path d="M34.153 10.9914C33.4497 10.1772 32.5806 9.52423 31.6043 9.07683C30.6281 8.62943 29.5675 8.39801 28.4945 8.39824H22.5122L23.0161 5.32289C23.1944 4.23991 22.9793 3.12862 22.41 2.19171C21.8407 1.25479 20.9552 0.554696 19.915 0.219104C18.8747 -0.116489 17.7491 -0.0652129 16.7434 0.363579C15.7376 0.792371 14.9188 1.57011 14.4362 2.55493L11.9977 7.51978V31H27.4447C29.2496 30.9926 30.9918 30.3345 32.3545 29.1454C33.7172 27.9563 34.6097 26.3153 34.8698 24.5208L35.9271 16.9869C36.0766 15.9182 35.9955 14.8297 35.6894 13.7952C35.3833 12.7607 34.8593 11.8045 34.153 10.9914Z" fill="#EDE9DE"/>
<path d="M0 15.9322V23.4661C0.00238133 25.4635 0.793171 27.3784 2.19891 28.7907C3.60465 30.2031 5.51055 30.9976 7.49856 31H8.99827V8.39824H7.49856C5.51055 8.40063 3.60465 9.19515 2.19891 10.6075C0.793171 12.0199 0.00238133 13.9348 0 15.9322Z" fill="#EDE9DE"/>
</svg>
