<svg width="48" height="48" viewBox="0 0 48 48" fill="none" xmlns="http://www.w3.org/2000/svg">
<path d="M44 20H28V4C28 2.93913 27.5786 1.92172 26.8284 1.17157C26.0783 0.421428 25.0609 0 24 0C22.9391 0 21.9217 0.421428 21.1716 1.17157C20.4214 1.92172 20 2.93913 20 4V20H4C2.93913 20 1.92172 20.4214 1.17157 21.1716C0.421428 21.9217 0 22.9391 0 24C0 25.0609 0.421428 26.0783 1.17157 26.8284C1.92172 27.5786 2.93913 28 4 28H20V44C20 45.0609 20.4214 46.0783 21.1716 46.8284C21.9217 47.5786 22.9391 48 24 48C25.0609 48 26.0783 47.5786 26.8284 46.8284C27.5786 46.0783 28 45.0609 28 44V28H44C45.0609 28 46.0783 27.5786 46.8284 26.8284C47.5786 26.0783 48 25.0609 48 24C48 22.9391 47.5786 21.9217 46.8284 21.1716C46.0783 20.4214 45.0609 20 44 20Z" fill="#EDE9DE"/>
</svg>
